<?xml version="1.0" encoding="UTF-8" standalone="no"?>
<!-- Created with Inkscape (http://www.inkscape.org/) -->

<svg
   xmlns:dc="http://purl.org/dc/elements/1.1/"
   xmlns:cc="http://creativecommons.org/ns#"
   xmlns:rdf="http://www.w3.org/1999/02/22-rdf-syntax-ns#"
   xmlns:svg="http://www.w3.org/2000/svg"
   xmlns="http://www.w3.org/2000/svg"
   xmlns:sodipodi="http://sodipodi.sourceforge.net/DTD/sodipodi-0.dtd"
   xmlns:inkscape="http://www.inkscape.org/namespaces/inkscape"
   width="1404.7461mm"
   height="275.99265mm"
   viewBox="0 0 1404.7461 275.99265"
   version="1.1"
   id="svg8"
   inkscape:version="0.92.4 (5da689c313, 2019-01-14)"
   sodipodi:docname="logoBTJ.svg">
  <defs
     id="defs2" />
  <sodipodi:namedview
     id="base"
     pagecolor="#ffffff"
     bordercolor="#666666"
     borderopacity="1.0"
     inkscape:pageopacity="0.0"
     inkscape:pageshadow="2"
     inkscape:zoom="0.175"
     inkscape:cx="3661.1732"
     inkscape:cy="1054.6435"
     inkscape:document-units="mm"
     inkscape:current-layer="layer1"
     showgrid="false"
     inkscape:window-width="1866"
     inkscape:window-height="1016"
     inkscape:window-x="54"
     inkscape:window-y="27"
     inkscape:window-maximized="1" />
  <metadata
     id="metadata5">
    <rdf:RDF>
      <cc:Work
         rdf:about="">
        <dc:format>image/svg+xml</dc:format>
        <dc:type
           rdf:resource="http://purl.org/dc/dcmitype/StillImage" />
        <dc:title></dc:title>
      </cc:Work>
    </rdf:RDF>
  </metadata>
  <g
     inkscape:label="Layer 1"
     inkscape:groupmode="layer"
     id="layer1"
     transform="translate(593.98252,-90.222765)">
    <path
       style="fill:#000000;stroke-width:0.35277778"
       d="m 158.97681,365.86052 c -4.67924,-0.52822 -11.27435,-1.99073 -15.80165,-3.50414 -24.5224,-8.19757 -39.82967,-27.41688 -41.06736,-51.56285 l -0.21265,-4.14866 16.54637,0.0917 16.54641,0.0917 0.26225,2.89384 c 0.90989,10.04075 8.44233,18.82033 19.7569,23.02807 6.11413,2.27375 15.13744,3.08557 21.92609,1.97266 9.0043,-1.47612 16.27187,-5.37923 20.71899,-11.12726 6.0754,-7.85263 7.28366,-18.71988 3.05911,-27.51382 -1.16977,-2.43505 -1.99464,-3.5406 -4.4746,-5.99722 -3.54203,-3.50873 -6.91261,-5.55994 -11.98051,-7.29093 -4.7196,-1.61202 -8.48455,-2.16089 -17.69462,-2.5796 -10.67157,-0.48515 -16.8281,-1.55947 -24.54445,-4.283 -23.02718,-8.12759 -37.09292,-27.30573 -39.69455,-54.12219 -0.51626,-5.32101 -0.22204,-16.80834 0.54659,-21.34305 3.01043,-17.76068 11.22994,-31.74007 24.5781,-41.80137 8.25017,-6.21865 17.80702,-10.23354 29.58931,-12.43063 2.69959,-0.5034 5.27244,-0.62494 13.22916,-0.62493 8.88983,1e-5 10.27519,0.0805 13.85108,0.80527 4.98733,1.01078 9.29298,2.50451 13.09614,4.54336 2.43099,1.30326 3.0354,1.5024 3.39086,1.11726 0.23791,-0.25778 3.10099,-3.85751 6.36242,-7.99942 3.26139,-4.14191 6.12842,-7.60695 6.37113,-7.70009 0.45604,-0.17499 24.48532,17.76674 24.48532,18.28224 0,0.15932 -3.25438,4.42181 -7.23195,9.4722 -3.97757,5.05039 -7.23194,9.27079 -7.23194,9.37867 0,0.10787 0.61775,0.93899 1.37273,1.84693 10.67163,12.83315 14.81211,32.42334 10.9366,51.74523 -3.07456,15.32874 -12.00831,28.36714 -23.50851,34.30971 -1.40589,0.72647 -2.55683,1.40828 -2.55764,1.51513 0,0.10686 0.74916,0.559 1.66667,1.00475 5.28792,2.56907 13.06219,8.94286 16.52245,13.54603 3.67958,4.89489 6.22438,10.5124 7.62353,16.82855 0.74281,3.35318 0.81954,4.55656 0.80966,12.7 -0.01,7.9824 -0.10005,9.40412 -0.80211,12.62007 -2.55415,11.69955 -7.10241,20.21468 -15.03712,28.15204 -10.13241,10.1358 -23.96832,16.32814 -40.49222,18.12255 -4.04527,0.43928 -16.89153,0.41543 -20.91599,-0.0388 z m 20.38643,-117.1937 c 10.95943,-3.29997 19.03822,-11.23407 22.62403,-22.21884 1.53264,-4.69514 2.09014,-9.24321 1.86228,-15.19258 -0.40573,-10.59389 -3.58638,-18.61464 -10.03392,-25.30295 -4.47188,-4.63887 -9.17501,-7.44778 -15.43604,-9.21906 -3.18332,-0.90057 -10.81532,-1.22049 -14.59166,-0.61164 -12.02546,1.93883 -21.90941,10.1863 -26.15763,21.82673 -2.42273,6.63849 -3.20982,15.90296 -1.95576,23.02103 2.47861,14.06844 11.53583,24.30364 24.60201,27.80167 3.84913,1.03047 3.8892,1.03413 10.16554,0.92779 5.10406,-0.0865 6.20261,-0.21358 8.92115,-1.03215 z m -681.86486,106.43697 c 0.13717,-0.55178 4.365,-15.97116 9.39517,-34.26527 5.03017,-18.2941 9.14576,-33.33012 9.14576,-33.41337 0,-0.0833 -18.77219,-0.20248 -41.71597,-0.26495 l -41.71598,-0.11358 -2.96104,-0.78744 c -9.51525,-2.53041 -16.8887,-8.57285 -20.8215,-17.06292 -2.92612,-6.31687 -2.65716,1.4002 -2.77037,-79.49017 -0.0903,-64.498 -0.0428,-72.25501 0.45763,-74.74504 1.18902,-5.91665 3.63674,-10.66685 7.70148,-14.94597 4.16299,-4.382535 8.34001,-6.970815 14.23223,-8.818965 l 3.10324,-0.97335 h 140.75834 140.75833 l 3.10324,0.97335 c 11.9612,3.75173 20.30393,13.058675 22.10997,24.665365 0.29375,1.88781 0.37275,21.9154 0.29335,74.37377 l -0.10865,71.79028 -0.8146,2.6322 c -3.28194,10.60479 -11.4618,18.50778 -22.21618,21.46423 l -3.42546,0.94168 -43.4876,0.10462 -43.4876,0.10462 -62.69851,33.80278 c -34.48419,18.59153 -63.23541,34.07922 -63.8916,34.41711 l -1.1931,0.61432 z m 69.61539,-45.4991 55.83697,-30.09834 44.35192,-0.0973 44.35193,-0.0974 2.82222,-0.96111 c 7.34008,-2.49968 12.84188,-7.88726 15.41017,-15.09028 l 0.81761,-2.29305 0.0924,-71.58888 c 0.1031,-79.87091 0.30817,-73.24877 -2.44213,-78.8589 -2.52095,-5.14228 -7.47167,-9.42213 -13.40712,-11.590315 l -2.5876,-0.94523 h -140.05277 -140.05278 l -2.91859,1.12486 c -7.6137,2.934435 -13.01342,8.797705 -14.90176,16.181065 -0.68743,2.68781 -0.70039,4.05495 -0.69527,73.32619 0.006,78.23827 -0.16842,72.51248 2.36559,77.75668 1.82733,3.78169 6.55916,8.5364 10.32919,10.37911 5.63076,2.7522 1.39252,2.54161 53.37901,2.65235 43.87112,0.0935 46.48989,0.13353 46.32375,0.70884 -0.4788,1.65807 -16.08104,58.60327 -16.29494,59.47347 -0.23911,0.97268 -0.21825,0.99243 0.59371,0.56236 0.46284,-0.24518 25.96816,-13.99003 56.67849,-30.54411 z m -111.03813,-57.14053 c -12.58834,-3.38279 -14.04893,-20.98225 -2.20215,-26.53483 1.82173,-0.85385 2.41034,-0.94541 6.07415,-0.94487 3.87227,7e-4 4.15461,0.0516 6.20234,1.12158 4.17946,2.18383 6.86387,5.87734 7.62945,10.49744 1.6724,10.0926 -7.75125,18.53517 -17.70379,15.86068 z m 37.73867,0.10906 c -4.1974,-1.20431 -7.70715,-4.15094 -9.43483,-7.92106 -1.2238,-2.67056 -1.4928,-6.82065 -0.63669,-9.82275 1.12323,-3.93881 4.02524,-7.30121 7.80657,-9.04505 1.48559,-0.68511 2.32055,-0.8005 5.79273,-0.8005 3.775,0 4.20373,0.0721 6.16911,1.03704 10.71202,5.2594 10.51137,20.56763 -0.33613,25.64378 -2.63149,1.23143 -6.81889,1.63785 -9.36076,0.90854 z m 37.57083,-0.0325 c -7.78302,-1.8927 -12.44419,-10.06655 -10.11444,-17.73674 0.93418,-3.07558 3.00126,-5.9843 5.41775,-7.62363 3.6336,-2.46501 2.8972,-2.40346 27.45086,-2.29443 l 22.04861,0.0979 2.15356,0.99529 c 5.61252,2.59389 9.01389,9.04996 7.95001,15.08973 -0.75763,4.30112 -3.60654,8.41217 -7.04527,10.16647 -3.43206,1.75091 -4.09747,1.79642 -25.79839,1.76434 -14.64128,-0.0216 -20.79041,-0.14955 -22.06269,-0.45894 z m 74.67755,-0.0388 c -3.9099,-1.10085 -7.4112,-4.1015 -9.17375,-7.86201 -0.84588,-1.80473 -0.94546,-2.42595 -0.94546,-5.89776 0,-3.53447 0.0879,-4.05965 0.98611,-5.88864 1.46199,-2.97714 3.77846,-5.35978 6.52599,-6.71238 2.24437,-1.1049 2.53491,-1.15732 6.4152,-1.15732 3.74734,0 4.22301,0.0779 6.09826,0.99833 10.5628,5.18468 10.64778,20.28301 0.14331,25.46125 -3.085,1.52076 -6.95868,1.92877 -10.04966,1.05851 z m 38.11682,0.1759 c -2.3386,-0.4956 -5.6177,-2.4223 -7.29206,-4.28459 -6.35335,-7.06646 -4.21323,-18.23519 4.29436,-22.41108 1.87524,-0.92045 2.35092,-0.99832 6.09825,-0.99832 3.88029,0 4.17083,0.0524 6.4152,1.15731 2.76654,1.36197 5.23996,3.90712 6.58908,6.78019 0.80545,1.71526 0.9118,2.39117 0.91707,5.82825 0.006,3.68373 -0.0546,4.01099 -1.14682,6.22959 -1.49208,3.03086 -4.55322,5.92776 -7.38989,6.99339 -2.29203,0.86104 -6.21249,1.1869 -8.48519,0.70526 z m 37.04823,-0.19325 c -5.57073,-1.50006 -9.3573,-5.6757 -10.37231,-11.43804 -1.0569,-6.00009 2.36647,-12.48509 7.95393,-15.06741 1.94961,-0.90103 2.52108,-0.99529 6.03412,-0.99529 3.47181,0 4.09303,0.0996 5.89776,0.94547 6.9546,3.25962 10.15711,11.75575 7.05284,18.71089 -2.77209,6.21091 -9.9719,9.62011 -16.56634,7.84438 z m -225.7653,-50.39817 c -6.58515,-2.12785 -10.56405,-8.636 -9.58045,-15.67041 1.32646,-9.48637 11.58457,-14.78004 20.29693,-10.47416 8.46865,4.18543 10.45315,15.27552 3.97305,22.20277 -2.94718,3.15054 -5.38046,4.22157 -9.85155,4.33622 -2.09508,0.0537 -3.90866,-0.0941 -4.83798,-0.39442 z m 75.02147,0.004 c -5.15041,-1.97705 -8.09067,-5.1498 -9.35965,-10.09971 -0.86097,-3.35841 -0.51307,-6.52137 1.06951,-9.72351 5.21171,-10.54517 20.32548,-10.42181 25.3858,0.20721 1.01526,2.13252 1.09168,2.56472 1.09168,6.17361 0,3.47181 -0.0996,4.09303 -0.94546,5.89776 -1.31765,2.81129 -3.79807,5.34029 -6.58179,6.71072 -2.07449,1.02126 -2.67097,1.14612 -5.85788,1.22617 -2.34891,0.059 -3.97205,-0.0736 -4.80221,-0.39225 z m 37.51464,-0.004 c -6.58832,-2.12888 -10.7526,-8.9052 -9.65622,-15.7131 1.85603,-11.52488 15.8197,-16.01287 24.08995,-7.74261 5.49412,5.49412 5.35321,14.7434 -0.30615,20.09579 -2.86589,2.71044 -5.20521,3.65667 -9.2896,3.75752 -2.08714,0.0515 -3.91218,-0.0985 -4.83798,-0.3976 z m 37.38301,-3e-5 c -3.54347,-1.15216 -6.69605,-3.98005 -8.47783,-7.60468 -0.8689,-1.7676 -0.96025,-2.3233 -0.96025,-5.8414 0,-3.67784 0.0623,-4.01453 1.15277,-6.22959 1.47257,-2.99121 4.54047,-5.90906 7.38989,-7.02847 1.59173,-0.62531 2.77797,-0.80651 5.39206,-0.82366 3.04932,-0.02 3.56199,0.0778 5.68797,1.08511 1.28512,0.6089 2.98051,1.68884 3.76753,2.39987 7.40044,6.68585 5.67782,18.8259 -3.30414,23.28578 -1.82817,0.90775 -2.54288,1.05293 -5.62219,1.14204 -2.30464,0.0667 -4.04717,-0.0668 -5.02581,-0.385 z m -149.05133,-49.98139 c -5.35311,-1.26163 -9.67895,-6.07114 -10.44375,-11.61144 -0.89246,-6.46507 2.27687,-12.4109 8.06394,-15.12836 1.71455,-0.80512 2.39173,-0.9118 5.82083,-0.91707 3.48443,-0.005 4.08772,0.0911 5.90996,0.94509 9.92676,4.65202 11.16506,18.45992 2.20815,24.62243 -3.10774,2.13819 -7.77354,2.98155 -11.55913,2.08935 z m 36.66563,-0.30441 c -3.8078,-1.22892 -6.61741,-3.69315 -8.45887,-7.41906 -1.05457,-2.13378 -1.12962,-2.53223 -1.12962,-5.99722 0,-3.30653 0.10525,-3.93626 0.96449,-5.77036 1.30462,-2.7848 2.74457,-4.52284 4.94975,-5.97445 3.75555,-2.47216 2.95814,-2.40548 27.45717,-2.29585 l 22.0147,0.0985 2.11666,1.03666 c 2.69525,1.32003 5.39953,4.02215 6.71006,6.7047 1.33965,2.74214 1.65471,7.53399 0.68893,10.47837 -1.29684,3.9537 -3.91889,6.86126 -7.84832,8.70292 l -2.02011,0.94679 -21.69583,0.0758 c -20.38288,0.0712 -21.82009,0.0357 -23.74901,-0.58683 z m 75.87048,0.30958 c -3.71439,-0.88991 -7.50452,-3.9421 -9.20099,-7.40956 -3.50723,-7.16853 -0.44258,-15.94451 6.74425,-19.31297 l 2.01721,-0.94547 h 22.93056 22.93055 l 2.02941,0.95105 c 5.81121,2.72333 9.14614,8.98622 8.08383,15.18115 -0.8334,4.86002 -3.60127,8.48501 -8.1096,10.62087 l -2.35642,1.11637 -21.87222,0.0579 c -12.02972,0.0319 -22.46818,-0.0849 -23.19658,-0.25937 z m 74.11525,-0.29251 c -2.54451,-0.82214 -3.98795,-1.72595 -5.79702,-3.62978 -3.72851,-3.92383 -4.91621,-8.96157 -3.32633,-14.10901 1.22686,-3.97211 3.77287,-6.85474 7.66494,-8.67838 l 2.0453,-0.95832 h 22.58519 22.5852 l 2.32268,1.14345 c 5.47892,2.69727 8.69,8.80688 7.76189,14.7683 -0.76266,4.89873 -3.35713,8.46904 -7.72234,10.6269 l -2.69212,1.33079 -21.7147,0.0758 c -20.20114,0.0705 -21.85396,0.0308 -23.71269,-0.56976 z m 962.78828,135.27315 c -13.38767,-1.54467 -23.99439,-5.21949 -33.86666,-11.73348 -6.32012,-4.17019 -13.71339,-10.78605 -13.28911,-11.89176 0.2885,-0.75176 15.76458,-23.1359 15.99586,-23.1359 0.1009,0 1.16033,0.84725 2.3543,1.88278 8.27698,7.17852 19.53267,12.39575 32.96663,15.28065 3.87798,0.8328 5.31407,0.96535 10.65565,0.98357 7.21198,0.0246 9.23219,-0.37519 14.39101,-2.84787 5.36899,-2.57342 8.41805,-6.15957 9.30483,-10.94386 0.79759,-4.3031 -0.97886,-8.30753 -4.7734,-10.76007 -3.91795,-2.53229 -9.1106,-3.69161 -21.03911,-4.69725 -14.24788,-1.20118 -24.61764,-3.70545 -33.70661,-8.14006 -11.31863,-5.52249 -17.80515,-12.99511 -20.80969,-23.97317 -0.38185,-1.39514 -0.6404,-4.16099 -0.75851,-8.11389 -0.20418,-6.83445 0.3295,-10.41261 2.31987,-15.55486 2.24017,-5.78753 7.96618,-12.76737 13.62086,-16.60349 7.36123,-4.99384 16.8523,-8.45343 28.04519,-10.22276 5.62364,-0.88897 20.41758,-0.88346 26.93141,0.01 10.14706,1.39183 18.30557,4.08515 25.89806,8.54959 3.28118,1.92936 9.60571,6.51005 10.76169,7.79441 0.60258,0.66947 0.35719,0.99903 -8.56654,11.50607 -5.05276,5.94928 -9.26944,10.81687 -9.37037,10.81687 -0.10097,0 -1.24665,-0.84798 -2.54596,-1.88438 -8.77048,-6.99573 -17.29095,-9.77325 -30.05551,-9.79761 -10.62252,-0.0203 -17.01048,1.65489 -21.17883,5.55389 -2.23891,2.09424 -3.21416,4.40548 -3.20411,7.59329 0.0265,8.36356 8.21119,13.10643 24.55933,14.23152 19.506,1.34242 32.53564,4.74537 41.62778,10.87193 2.79887,1.88595 6.93127,5.88906 8.86538,8.58795 2.11448,2.95062 4.22275,7.56621 5.33971,11.69024 0.8697,3.21113 0.92728,3.9065 0.92604,11.18511 0,6.88255 -0.0881,8.0738 -0.76807,10.52342 -3.09128,11.13692 -9.87848,19.71694 -20.36028,25.73842 -5.51367,3.16744 -13.56791,5.83605 -21.66123,7.17702 -4.64746,0.77002 -22.94675,0.97705 -28.60961,0.32367 z M 467.3778,286.73331 c -8.0675,-1.02148 -15.47827,-3.10297 -21.94543,-6.16391 -7.08878,-3.35516 -11.9187,-6.84039 -17.51249,-12.63684 -9.05351,-9.38152 -14.51599,-21.16883 -17.12404,-36.95152 -0.52211,-3.15958 -0.64022,-5.87963 -0.63585,-14.64028 0.006,-11.87263 0.41702,-15.48392 2.67928,-23.54053 7.2208,-25.71558 27.07996,-42.24057 55.04007,-45.79936 6.98606,-0.88919 18.82916,-0.56674 23.94331,0.65189 5.00493,1.19262 7.63559,2.10412 11.8509,4.10621 6.7031,3.18369 12.82538,8.11271 16.42015,13.21976 1.57744,2.24104 1.71587,2.35428 1.72522,1.41111 0.008,-0.78296 0.96478,-15.85448 1.03396,-16.28311 0.008,-0.0485 7.15797,-0.0882 15.88922,-0.0882 h 15.875 v 66.49861 66.49861 h -15.63924 -15.63924 l -0.6108,-7.32014 c -0.33592,-4.02608 -0.70069,-8.14246 -0.81058,-9.14753 l -0.19981,-1.82739 -1.7628,2.70934 c -5.68297,8.73451 -17.46687,15.8401 -31.13059,18.77145 -4.56121,0.97854 -15.73054,1.25551 -21.44624,0.53182 z m 22.19378,-30.70987 c 9.73299,-1.65887 17.52448,-6.25486 23.18642,-13.67703 11.09112,-14.53928 11.09112,-37.11925 0,-51.65853 -7.04381,-9.23368 -17.64365,-14.21415 -30.24198,-14.20959 -17.81217,0.006 -31.78919,9.58953 -37.04407,25.39858 -3.70385,11.14291 -2.92481,24.00854 2.06139,34.04306 5.42996,10.92753 14.90814,17.83823 27.53237,20.0743 3.78911,0.67114 10.65833,0.68497 14.50587,0.0292 z M -252.89124,188.28187 V 93.547995 l 43.65625,0.11554 c 42.59146,0.11273 43.76836,0.13388 48.25347,0.86746 21.27648,3.47993 36.48931,10.636615 49.67071,23.366955 14.830783,14.32327 23.861329,33.55963 26.920336,57.3442 0.811177,6.30719 0.814282,20.1414 0.006,26.6127 -2.25686,18.06803 -8.36302,33.91113 -18.091996,46.94146 -3.26348,4.3709 -9.74266,11.15485 -13.71336,14.35841 -13.43081,10.83596 -29.84743,17.31087 -48.98621,19.32073 -4.31222,0.45284 -11.82865,0.54031 -46.43018,0.54031 h -41.28502 z m 82.82848,59.78851 c 7.19504,-0.78375 13.82196,-2.56197 19.76013,-5.30227 10.23462,-4.72302 19.5278,-14.06265 24.55605,-24.67871 7.36,-15.53908 8.37308,-35.54533 2.66644,-52.65665 -7.43173,-22.28406 -24.62484,-35.52462 -48.8486,-37.61874 -2.32834,-0.20128 -13.48052,-0.36761 -24.78264,-0.36961 l -20.54931,-0.004 v 60.50139 60.50139 h 21.88612 c 12.99327,0 23.27808,-0.15162 25.31181,-0.37316 z m 90.385397,-31.90601 v -66.85134 h 16.580556 16.580556 v 66.85139 66.85139 h -16.580556 -16.580556 z m 45.155556,0.17256 V 149.6581 l 14.890785,0.092 14.8907857,0.092 0.970527,7.9375 c 0.533823,4.36562 0.9767,8.22689 0.984215,8.58058 0.0099,0.46634 1.007498,-0.21925 3.62966001,-2.49453 8.49111399,-7.36784 14.93019029,-11.24074 22.95645029,-13.80761 5.85174,-1.87143 8.07536,-2.21458 15.58452,-2.40499 6.10984,-0.15492 7.64206,-0.0791 11.43117,0.56578 17.83542,3.03538 31.61478,13.54062 39.55796,30.15857 3.03181,6.34279 4.59814,11.3591 6.07088,19.44248 0.75932,4.16778 0.77301,4.86016 0.88428,44.71458 l 0.11299,40.48125 h -16.59322 -16.59322 v -36.55542 c 0,-31.32916 -0.0788,-37.08631 -0.55139,-40.26877 -2.82342,-19.01489 -15.85881,-29.69762 -34.45698,-28.23812 -14.978905,1.17548 -26.7564623,12.68695 -30.16383729,29.4824 -0.47646101,2.34845 -0.57407501,7.83693 -0.69656001,39.1556 l -0.142451,36.42441 H -18.138525 -34.521807 Z M 241.35043,188.28192 V 93.548045 l 43.65625,0.11554 c 42.59146,0.11273 43.76836,0.13388 48.25347,0.86746 21.27649,3.47993 36.48932,10.636615 49.67072,23.366955 14.83078,14.32327 23.86133,33.55963 26.92034,57.3442 0.81117,6.30719 0.81428,20.1414 0.006,26.6127 -2.25686,18.06803 -8.36302,33.91113 -18.09199,46.94146 -3.26348,4.3709 -9.74267,11.15485 -13.71336,14.35841 -13.43081,10.83596 -29.84743,17.31087 -48.98623,19.32073 -4.31221,0.45284 -11.82864,0.54031 -46.43017,0.54031 h -41.28502 z m 82.82848,59.78851 c 7.19504,-0.78375 13.82197,-2.56197 19.76014,-5.30227 10.23461,-4.72302 19.5278,-14.06265 24.55605,-24.67871 7.36,-15.53908 8.37308,-35.54533 2.66644,-52.65665 -7.43173,-22.28406 -24.62484,-35.52462 -48.84861,-37.61874 -2.32834,-0.20128 -13.48052,-0.36761 -24.78264,-0.36961 l -20.54931,-0.004 v 60.50139 60.50139 h 21.88612 c 12.99327,0 23.27808,-0.15162 25.31181,-0.37316 z M 681.26432,188.29498 V 93.574145 h 16.58055 16.58056 v 36.928775 36.92878 l 1.29604,-1.56281 c 7.29516,-8.79687 16.58362,-14.4555 27.90913,-17.00257 3.03727,-0.68307 4.4693,-0.77165 12.599,-0.77934 8.12532,-0.008 9.61513,0.0814 13.05277,0.78032 15.95664,3.2443 27.01012,11.50489 33.87609,25.31657 3.32617,6.69097 4.99276,12.21721 6.7558,22.40138 0.51047,2.94856 0.59637,8.34439 0.71476,44.89098 l 0.13459,41.53958 h -16.59548 -16.59548 v -36.78634 c 0,-23.09211 -0.13539,-37.89917 -0.36368,-39.77569 -1.78061,-14.63535 -8.79016,-23.60808 -20.97937,-26.85508 -3.83621,-1.02189 -12.60761,-1.12375 -16.05139,-0.18639 -12.44173,3.38651 -20.98382,12.33423 -24.35363,25.51001 -1.21888,4.76579 -1.39915,10.53859 -1.39915,44.80722 v 33.28627 H 697.84487 681.26432 Z M -66.977363,131.43043 c -3.622287,-0.60636 -7.15398,-2.38749 -9.984846,-5.03562 -3.949417,-3.69449 -5.540339,-7.7513 -5.533178,-14.10937 0.0071,-6.18267 1.458948,-9.99185 5.261716,-13.803685 4.861207,-4.87281 12.367965,-6.75851 19.571053,-4.91627 6.815878,1.74321 11.484187,6.20544 13.480168,12.885045 0.749829,2.50938 0.853863,8.66237 0.187889,11.1125 -2.43332,8.95219 -9.736384,14.23757 -19.431635,14.06307 -1.468049,-0.0264 -3.066097,-0.11447 -3.551167,-0.19567 z"
       id="path72"
       inkscape:connector-curvature="0" />
  </g>
</svg>
