<?xml version="1.0" standalone="no"?>
<!DOCTYPE svg PUBLIC "-//W3C//DTD SVG 20010904//EN"
 "http://www.w3.org/TR/2001/REC-SVG-20010904/DTD/svg10.dtd">
<svg version="1.0" xmlns="http://www.w3.org/2000/svg"
 width="900.000000pt" height="726.000000pt" viewBox="0 0 900.000000 726.000000"
 preserveAspectRatio="xMidYMid meet">
<metadata>
Created by potrace 1.10, written by Peter Selinger 2001-2011
</metadata>
<g transform="translate(0.000000,726.000000) scale(0.100000,-0.100000)"
fill="#1ab595" stroke="none">
<path d="M768 6973 c-25 -2 -52 -11 -58 -19 -8 -8 -31 -14 -61 -14 -26 0 -50
-4 -53 -9 -6 -10 -87 -51 -100 -51 -26 0 -255 -208 -256 -232 0 -4 -12 -24
-26 -45 -14 -21 -30 -48 -35 -60 -5 -13 -13 -23 -19 -23 -5 0 -10 -15 -10 -34
0 -18 -6 -39 -14 -45 -8 -7 -17 -40 -21 -74 -4 -34 -11 -67 -16 -73 -5 -7 -8
-804 -6 -1910 4 -1978 5 -2026 44 -2066 7 -6 13 -24 13 -39 0 -15 7 -29 15
-33 8 -3 15 -12 15 -19 0 -8 7 -20 15 -27 8 -7 15 -19 15 -27 0 -8 14 -34 32
-57 42 -54 150 -166 161 -166 5 0 25 -14 44 -30 18 -16 42 -30 52 -30 10 0 24
-6 30 -14 6 -8 24 -16 39 -19 39 -7 101 -32 114 -45 9 -9 298 -12 1158 -12
1080 0 1148 -1 1163 -17 25 -28 31 -67 13 -82 -9 -8 -16 -28 -16 -46 0 -18 -7
-38 -15 -45 -9 -8 -15 -30 -15 -60 0 -30 -6 -52 -15 -60 -9 -7 -15 -29 -15
-51 0 -21 -4 -40 -9 -44 -5 -3 -13 -30 -16 -59 -4 -32 -13 -57 -21 -60 -9 -4
-14 -22 -14 -53 0 -26 -7 -61 -15 -77 -8 -15 -15 -39 -15 -51 0 -13 -7 -25
-15 -29 -11 -4 -15 -21 -15 -61 0 -40 -4 -57 -15 -61 -10 -4 -15 -20 -15 -44
0 -22 -4 -41 -9 -45 -5 -3 -13 -30 -16 -60 -4 -31 -13 -59 -20 -63 -7 -4 -15
-36 -18 -71 -3 -35 -10 -68 -16 -74 -6 -6 -11 -21 -11 -34 0 -13 -7 -26 -15
-29 -11 -5 -15 -22 -15 -69 0 -43 -5 -66 -15 -75 -8 -7 -15 -22 -15 -34 0 -12
-5 -27 -12 -34 -6 -6 -14 -33 -16 -59 -2 -27 -9 -55 -16 -63 -8 -8 -16 -42
-20 -75 -4 -33 -11 -64 -16 -69 -20 -20 -11 -46 14 -46 14 0 28 5 31 11 4 5
17 14 28 20 22 9 33 15 72 37 11 7 27 15 35 18 41 16 100 46 105 55 4 5 14 9
25 9 10 0 20 7 24 15 3 8 12 15 19 15 8 0 20 7 27 15 7 8 23 15 36 15 12 0 25
4 29 9 3 6 26 20 51 33 26 12 49 28 51 35 3 7 15 13 28 13 12 0 28 7 35 15 7
8 18 15 25 15 7 0 18 7 25 15 7 8 23 15 37 15 13 0 26 7 29 15 4 8 12 15 20
15 8 0 33 13 56 30 22 16 52 30 65 30 13 0 26 7 29 15 4 8 12 15 19 15 7 0 18
7 25 15 7 8 20 15 30 15 10 0 20 7 24 15 3 8 11 15 18 15 16 0 96 39 104 51 3
5 16 9 30 9 13 0 24 5 24 10 0 6 10 15 23 20 12 6 36 19 52 30 17 11 37 22 45
26 44 17 100 46 105 55 4 5 13 9 21 9 8 0 33 14 56 30 22 17 46 30 53 30 7 0
31 13 53 30 23 16 49 30 57 30 9 0 18 7 21 15 4 8 17 15 29 15 13 0 26 4 29 9
7 11 83 51 97 51 6 0 28 13 49 30 21 16 50 30 64 30 14 0 26 5 26 10 0 6 10
15 23 21 33 15 67 35 80 48 6 6 19 11 28 11 9 0 19 6 22 14 3 7 18 17 34 20
15 4 45 18 65 32 21 13 47 24 58 24 11 0 20 5 20 10 0 6 10 15 23 21 33 15 67
35 80 48 6 6 21 11 33 11 12 0 27 7 34 15 7 8 18 15 25 15 7 0 18 7 25 15 7 8
19 15 27 15 8 0 32 13 52 29 20 15 48 31 64 35 15 3 27 11 27 16 0 6 9 10 19
10 11 0 22 4 26 9 3 6 29 22 58 36 71 36 97 51 110 64 6 6 21 11 34 11 13 0
26 7 29 15 4 8 14 15 23 15 9 0 32 13 51 30 19 16 45 29 57 30 12 0 25 5 28
11 4 5 17 14 28 20 12 5 29 13 37 18 8 5 33 18 55 28 22 10 59 31 82 46 l43
27 1189 0 c1044 0 1190 2 1201 15 7 8 27 15 45 15 18 0 38 7 45 15 7 8 18 15
24 15 21 0 142 65 171 93 17 15 35 27 41 27 14 0 84 70 84 85 0 6 14 24 30 40
17 16 30 37 30 46 0 10 4 20 9 23 11 7 51 88 51 102 0 6 6 16 12 22 42 42 42
31 45 2086 2 1169 -1 1963 -6 1970 -5 6 -12 32 -16 58 -4 26 -13 53 -21 59 -8
6 -14 25 -14 41 0 16 -6 31 -15 34 -8 4 -15 12 -15 19 0 7 -7 18 -15 25 -8 7
-15 18 -15 25 0 12 -68 93 -126 150 -41 40 -121 98 -154 111 -8 3 -19 8 -25
10 -5 2 -30 15 -54 29 -24 14 -58 25 -74 25 -17 0 -39 8 -50 18 -18 16 -211
17 -3746 18 -2049 0 -3747 -1 -3773 -3z m7597 -204 c39 -21 80 -43 93 -49 26
-11 182 -167 182 -182 0 -6 14 -27 30 -48 18 -23 30 -50 30 -68 0 -16 7 -35
15 -42 8 -7 15 -27 15 -45 0 -18 7 -38 15 -45 13 -11 15 -234 15 -1894 0
-1649 -2 -1885 -15 -1910 -8 -15 -15 -44 -15 -62 0 -22 -6 -37 -15 -40 -9 -4
-15 -19 -15 -36 0 -18 -12 -45 -30 -68 -16 -21 -30 -44 -30 -52 0 -12 -123
-148 -134 -148 -3 0 -20 -14 -38 -30 -18 -17 -40 -30 -49 -30 -9 0 -22 -7 -29
-15 -7 -8 -27 -17 -46 -21 -19 -3 -37 -10 -40 -15 -3 -5 -18 -9 -33 -9 -15 0
-36 -7 -47 -15 -16 -12 -178 -14 -1205 -15 -1042 0 -1188 -2 -1199 -15 -7 -8
-18 -15 -25 -15 -7 0 -18 -7 -25 -15 -7 -8 -20 -15 -30 -15 -10 0 -23 -7 -30
-15 -7 -8 -21 -15 -32 -15 -11 0 -37 -14 -58 -30 -21 -17 -43 -30 -48 -30 -6
0 -31 -13 -55 -30 -25 -16 -54 -30 -65 -30 -11 0 -22 -7 -26 -15 -3 -8 -14
-15 -24 -15 -10 0 -33 -13 -52 -30 -19 -16 -45 -29 -56 -30 -12 0 -27 -7 -34
-15 -7 -8 -18 -15 -25 -15 -7 0 -18 -7 -25 -15 -7 -8 -20 -15 -30 -15 -10 0
-23 -7 -30 -15 -7 -8 -21 -15 -31 -15 -11 0 -19 -4 -19 -9 0 -12 -76 -51 -100
-51 -11 0 -20 -4 -20 -9 0 -11 -75 -51 -95 -51 -8 0 -18 -6 -22 -13 -7 -13
-49 -38 -83 -51 -15 -6 -24 -11 -65 -34 -11 -7 -29 -16 -40 -21 -11 -5 -37
-21 -58 -35 -21 -14 -45 -26 -54 -26 -8 0 -32 -14 -53 -30 -21 -17 -49 -30
-62 -30 -13 0 -38 -14 -56 -30 -18 -17 -41 -30 -52 -30 -10 0 -20 -7 -24 -15
-3 -8 -14 -15 -25 -15 -11 0 -22 -4 -25 -9 -7 -11 -88 -51 -104 -51 -6 0 -26
-14 -44 -30 -18 -17 -40 -30 -49 -30 -9 0 -22 -7 -29 -15 -7 -8 -17 -15 -23
-15 -15 0 -96 -40 -103 -51 -3 -5 -14 -9 -25 -9 -10 0 -19 -5 -19 -10 0 -6
-10 -15 -22 -20 -13 -6 -30 -14 -38 -19 -8 -5 -37 -20 -63 -33 -80 -38 -97
-49 -97 -59 0 -5 -11 -9 -24 -9 -13 0 -29 -7 -36 -15 -7 -8 -18 -15 -25 -15
-7 0 -18 -7 -25 -15 -7 -8 -23 -15 -37 -15 -13 0 -26 -7 -29 -15 -4 -8 -12
-15 -20 -15 -8 0 -33 -14 -56 -30 -22 -17 -48 -30 -57 -30 -9 0 -36 -14 -61
-30 -25 -16 -53 -30 -62 -30 -10 0 -18 -5 -18 -10 0 -6 -10 -15 -23 -20 -12
-6 -42 -22 -66 -35 -24 -14 -52 -25 -63 -25 -10 0 -18 -5 -18 -10 0 -6 -10
-14 -22 -19 -13 -5 -40 -21 -61 -35 -21 -14 -44 -26 -51 -26 -8 0 -19 -7 -26
-16 -8 -8 -25 -14 -39 -12 -23 3 -26 8 -29 44 -2 27 2 45 13 54 9 7 15 29 15
54 0 23 7 51 15 62 8 10 15 33 15 50 0 17 7 37 15 44 9 8 15 30 15 60 0 30 6
52 15 60 8 7 15 29 15 50 0 21 6 43 13 49 8 6 15 32 16 57 0 26 7 52 15 58 7
6 16 38 19 70 3 32 11 64 16 69 6 6 11 25 11 43 0 17 7 37 15 44 9 8 15 30 15
59 0 26 7 56 15 67 8 10 15 30 15 44 0 14 7 34 15 44 8 11 15 38 15 61 0 23 7
50 15 61 8 10 15 33 15 49 0 17 7 43 15 59 8 15 15 40 15 55 0 15 7 36 15 47
8 10 15 40 15 65 0 29 6 51 15 59 8 7 15 28 15 46 l0 34 -1213 0 c-1051 0
-1216 2 -1233 15 -10 8 -28 15 -39 15 -24 0 -126 37 -139 51 -6 5 -18 9 -28 9
-23 0 -217 186 -224 216 -3 12 -12 25 -20 28 -8 3 -14 16 -14 29 0 14 -7 30
-15 37 -8 7 -15 28 -15 47 0 21 -6 36 -15 39 -13 5 -15 232 -15 1958 1 1700 3
1954 15 1970 8 11 15 36 15 57 0 24 5 39 15 43 8 3 15 12 15 20 0 17 82 139
114 171 33 33 103 85 114 85 5 0 15 6 21 14 7 8 35 22 62 32 28 10 55 24 61
31 8 11 733 13 3812 12 l3801 0 70 -40z"/>
<path d="M1404 6055 c-4 -10 -20 -15 -45 -15 -21 0 -39 -4 -39 -9 0 -4 -25
-28 -55 -52 -31 -25 -58 -55 -62 -69 -3 -14 -13 -33 -21 -43 -12 -14 -16 -45
-16 -146 -1 -109 2 -132 17 -148 9 -11 17 -25 17 -32 0 -11 48 -62 112 -118
15 -13 39 -23 56 -23 17 0 32 -6 36 -15 4 -12 24 -15 94 -15 67 0 93 4 102 15
7 8 20 15 30 15 10 0 23 7 30 15 7 8 18 15 24 15 6 0 28 16 50 35 37 33 54 56
75 102 5 11 15 24 20 28 15 8 15 242 0 250 -5 4 -15 17 -20 28 -20 44 -36 67
-83 117 -38 41 -53 50 -80 50 -19 0 -39 7 -46 15 -9 11 -35 15 -102 15 -70 0
-90 -3 -94 -15z"/>
<path d="M2400 6055 c-7 -8 -21 -15 -31 -15 -36 0 -149 -83 -149 -110 0 -10
-4 -21 -9 -24 -5 -3 -18 -24 -30 -46 -18 -35 -21 -58 -21 -160 0 -76 4 -120
10 -120 6 0 14 -8 18 -18 26 -64 132 -162 176 -162 13 0 29 -7 36 -15 11 -13
89 -15 595 -15 506 0 584 2 595 15 7 8 25 15 40 15 18 0 39 11 57 29 16 16 38
30 49 33 11 2 20 13 22 26 2 12 7 22 12 22 12 0 50 68 50 89 0 10 7 24 15 31
11 9 15 33 15 90 0 57 -4 81 -15 90 -8 7 -15 21 -15 32 0 11 -13 39 -28 62
-15 22 -31 49 -35 59 -3 9 -12 17 -20 17 -7 0 -26 14 -42 30 -20 21 -38 30
-61 30 -17 0 -37 7 -44 15 -11 13 -89 15 -595 15 -506 0 -584 -2 -595 -15z"/>
<path d="M4394 6055 c-10 -8 -31 -15 -45 -15 -20 0 -46 -20 -103 -81 -63 -67
-76 -86 -76 -114 0 -18 -7 -38 -15 -45 -11 -9 -15 -32 -15 -80 0 -48 4 -71 15
-80 8 -7 15 -24 15 -39 0 -15 7 -38 16 -51 48 -71 144 -150 183 -150 10 0 24
-7 31 -15 11 -13 90 -15 600 -15 510 0 589 2 600 15 7 8 24 15 37 15 14 0 42
14 63 30 21 17 42 30 46 30 14 0 54 52 54 70 0 10 7 23 15 30 8 7 15 19 15 27
0 7 7 16 15 19 12 5 15 27 15 115 0 60 -4 109 -9 109 -10 0 -51 79 -51 97 0
13 -82 83 -97 83 -6 0 -13 7 -17 15 -3 9 -18 15 -39 15 -19 0 -40 7 -47 15
-19 22 -1176 23 -1206 0z"/>
<path d="M6406 6055 c-11 -8 -32 -15 -47 -15 -14 0 -32 -7 -39 -15 -7 -8 -18
-15 -25 -15 -6 0 -28 -16 -48 -37 -20 -20 -37 -42 -37 -48 0 -7 -7 -18 -15
-25 -8 -7 -15 -22 -15 -33 0 -11 -7 -25 -16 -32 -13 -9 -16 -32 -17 -114 -2
-87 1 -105 16 -115 9 -7 17 -22 17 -33 0 -11 7 -26 15 -33 8 -7 15 -18 15 -24
0 -32 115 -116 158 -116 10 0 27 -7 38 -15 29 -22 1150 -22 1180 0 10 8 29 15
40 15 12 0 27 7 34 15 7 8 17 15 22 15 14 0 88 71 99 95 5 11 13 27 18 35 38
66 54 213 27 252 -9 12 -16 34 -16 49 0 15 -7 29 -15 33 -8 3 -15 12 -15 19 0
8 -27 39 -59 70 -45 43 -67 57 -89 57 -16 0 -35 7 -42 15 -19 22 -1155 22
-1184 0z"/>
<path d="M1423 4723 c-23 -2 -47 -11 -53 -19 -7 -7 -21 -14 -32 -14 -22 0
-138 -106 -138 -126 0 -7 -8 -17 -17 -23 -16 -8 -18 -27 -18 -143 0 -111 3
-138 18 -161 9 -14 17 -32 17 -39 1 -17 67 -88 83 -88 6 -1 28 -14 47 -30 34
-30 35 -30 160 -30 95 0 131 4 146 15 10 8 25 15 32 15 16 0 132 118 155 158
14 24 17 54 17 151 0 85 -4 122 -12 128 -7 4 -22 25 -32 45 -22 44 -110 128
-133 128 -9 0 -21 6 -27 14 -12 16 -137 27 -213 19z"/>
<path d="M3410 4723 c-19 -2 -41 -10 -49 -16 -15 -13 -47 -32 -76 -46 -32 -14
-82 -73 -98 -116 -2 -5 -10 -26 -17 -45 -21 -56 -25 -186 -6 -215 9 -13 16
-36 16 -49 0 -16 14 -39 35 -60 19 -20 35 -39 35 -43 0 -8 34 -30 100 -65 28
-15 57 -18 155 -18 108 0 124 2 154 23 19 12 43 27 53 33 33 20 77 69 78 85 0
9 7 22 15 29 8 7 15 20 15 30 0 10 7 23 15 30 11 9 15 35 15 106 0 52 -4 94
-9 94 -9 0 -51 78 -51 96 0 16 -108 114 -126 114 -9 0 -25 7 -34 15 -17 16
-156 27 -220 18z"/>
<path d="M4423 4723 c-28 -2 -57 -11 -63 -18 -7 -8 -22 -15 -34 -15 -22 0 -96
-61 -96 -79 0 -6 -13 -26 -30 -44 -16 -19 -30 -46 -30 -59 0 -13 -7 -33 -15
-44 -20 -26 -20 -137 0 -154 8 -7 15 -27 15 -45 0 -20 6 -35 15 -39 8 -3 15
-12 15 -20 0 -18 106 -126 124 -126 8 0 19 -7 27 -16 11 -13 34 -15 153 -12
133 3 143 5 171 28 66 55 135 133 135 151 0 11 7 31 16 45 23 34 22 188 0 213
-9 10 -16 30 -16 44 0 20 -17 45 -65 92 -35 36 -72 65 -80 65 -9 0 -26 6 -38
14 -25 16 -125 25 -204 19z"/>
<path d="M5423 4723 c-23 -2 -47 -11 -53 -19 -7 -7 -21 -14 -31 -14 -27 0
-119 -71 -119 -91 0 -9 -7 -19 -15 -23 -8 -3 -15 -13 -15 -23 0 -10 -7 -27
-15 -37 -8 -11 -15 -28 -15 -39 0 -10 -7 -25 -15 -33 -10 -10 -15 -35 -15 -69
0 -38 4 -54 15 -59 8 -3 15 -14 15 -24 0 -50 82 -162 155 -211 46 -31 47 -31
181 -31 123 0 138 2 167 22 53 37 137 127 137 147 0 10 7 24 15 31 8 7 15 27
15 45 0 18 7 38 15 45 8 7 15 28 15 47 0 21 -6 36 -15 39 -9 4 -15 19 -15 38
0 18 -7 41 -15 52 -8 10 -15 27 -15 37 0 10 -7 20 -15 23 -8 4 -15 12 -15 20
0 16 -50 64 -68 64 -7 0 -15 7 -18 15 -4 8 -17 15 -30 15 -12 0 -27 6 -31 14
-9 15 -127 26 -200 19z"/>
<path d="M1379 3371 c-66 -14 -179 -112 -179 -155 0 -8 -8 -19 -17 -25 -16 -8
-18 -26 -17 -143 0 -132 1 -133 32 -179 39 -58 104 -117 147 -135 19 -7 37
-19 40 -25 5 -7 46 -10 119 -8 102 3 114 6 152 31 23 15 46 28 51 28 20 0 76
69 102 128 6 12 15 22 21 22 6 0 10 48 10 132 l0 132 -38 45 c-21 25 -44 56
-51 69 -6 12 -16 22 -21 22 -5 0 -30 15 -55 32 -45 32 -50 33 -153 35 -59 1
-123 -2 -143 -6z"/>
<path d="M2373 3373 c-17 -2 -37 -11 -43 -19 -7 -8 -18 -14 -24 -14 -15 -1
-86 -67 -86 -81 0 -6 -13 -28 -30 -49 -30 -38 -30 -38 -30 -169 0 -72 4 -131
9 -131 5 0 19 -19 31 -42 31 -60 82 -108 147 -137 11 -5 24 -15 28 -21 9 -15
225 -12 244 3 16 14 49 33 77 46 23 10 104 100 104 115 0 5 8 18 18 29 14 16
17 39 17 150 0 99 -3 131 -13 135 -7 2 -18 14 -23 26 -24 53 -49 84 -101 120
l-57 39 -118 2 c-65 2 -132 1 -150 -2z"/>
<path d="M3368 3373 c-25 -3 -45 -13 -60 -32 -13 -15 -31 -30 -41 -34 -10 -4
-20 -14 -24 -24 -4 -10 -19 -30 -35 -45 -15 -15 -28 -38 -28 -51 0 -13 -7 -32
-15 -43 -31 -41 -8 -235 34 -277 6 -6 11 -16 11 -21 1 -19 70 -86 89 -86 10 0
21 -7 25 -15 3 -8 12 -15 20 -15 8 0 16 -6 18 -12 4 -10 137 -14 611 -16 599
-3 607 -2 649 18 97 48 122 67 148 118 12 23 26 42 31 42 5 0 9 10 9 22 0 12
7 29 16 39 22 25 23 179 0 213 -9 14 -16 34 -16 45 0 10 -7 21 -15 25 -8 3
-15 11 -15 19 0 16 -81 97 -97 97 -7 0 -16 8 -22 18 -9 16 -50 17 -633 18
-343 1 -640 -1 -660 -3z"/>
<path d="M5378 3373 c-20 -2 -42 -11 -48 -19 -7 -8 -21 -14 -31 -14 -11 0 -19
-5 -19 -10 0 -6 -20 -30 -45 -53 -25 -24 -45 -53 -45 -64 0 -11 -7 -26 -15
-33 -8 -7 -15 -23 -15 -35 0 -12 -7 -28 -15 -35 -9 -8 -15 -30 -15 -60 0 -30
6 -52 15 -60 8 -7 15 -22 15 -34 0 -12 7 -31 15 -42 8 -10 15 -27 15 -36 0
-10 8 -27 18 -38 40 -47 77 -80 90 -80 7 0 30 -12 49 -27 35 -27 41 -28 150
-28 68 0 117 4 121 10 4 6 33 24 65 40 36 18 65 41 78 62 11 18 25 33 30 33 5
0 9 10 9 23 0 13 7 32 15 43 8 10 15 32 15 47 0 15 7 30 15 33 10 4 15 20 15
44 0 21 -7 45 -15 54 -8 8 -15 28 -15 44 0 16 -7 35 -15 42 -8 7 -15 22 -15
34 0 19 -98 126 -116 126 -4 0 -16 7 -25 16 -14 13 -44 17 -131 19 -62 2 -130
1 -150 -2z"/>
<path d="M6370 3373 c-19 -2 -39 -11 -43 -19 -4 -8 -14 -14 -21 -14 -20 0
-126 -116 -126 -138 0 -11 -7 -25 -15 -32 -12 -10 -15 -37 -15 -120 0 -83 3
-110 15 -120 8 -7 15 -24 15 -38 0 -13 10 -35 23 -48 12 -12 32 -36 45 -53 13
-17 32 -31 42 -31 10 0 21 -4 24 -9 4 -5 26 -19 49 -30 55 -27 226 -31 247 -6
7 8 23 15 37 15 13 0 26 6 29 14 3 8 15 17 27 20 35 9 117 134 117 178 0 13 7
32 15 42 20 26 20 110 0 126 -8 7 -15 27 -15 45 0 18 -7 38 -15 45 -8 7 -15
18 -15 24 0 16 -96 116 -111 116 -7 0 -21 7 -30 16 -14 13 -44 17 -131 19 -62
2 -129 1 -148 -2z"/>
<path d="M7385 3374 c-11 -3 -30 -7 -42 -9 -26 -6 -143 -112 -143 -130 0 -7
-7 -18 -15 -25 -8 -7 -15 -20 -15 -30 0 -10 -7 -23 -15 -30 -11 -9 -15 -35
-15 -105 0 -70 4 -96 15 -105 8 -7 15 -20 15 -29 0 -9 5 -22 11 -28 14 -14 36
-52 45 -75 3 -10 11 -18 17 -18 6 0 18 -6 26 -14 9 -7 42 -28 73 -45 52 -29
64 -31 151 -31 72 0 98 4 107 15 7 8 23 15 35 15 12 0 28 7 35 15 7 8 19 15
26 15 15 0 83 69 84 86 0 5 5 15 11 21 41 41 63 211 34 267 -8 15 -15 36 -15
46 0 10 -7 23 -15 30 -8 7 -15 18 -15 24 0 16 -87 97 -128 119 -28 15 -61 20
-142 23 -58 2 -114 1 -125 -2z"/>
</g>
</svg>
